<svg height="82" viewBox="0 0 82 82" width="82" xmlns="http://www.w3.org/2000/svg"><path d="m0 0h82v82h-82z" fill="none"/><path d="m41-0c-33.498 0-41 .316-41 41s7.502 41 41 41 41-.316 41-41c0-40.684-7.502-41-41-41z" fill="#2296f3"/><path d="m20.727 19.175 24.269-6.503c4.801-1.287 9.736 1.563 11.022 6.364l9.249 34.517c1.286 4.801-1.563 9.736-6.364 11.022l-24.269 6.503c-4.801 1.287-9.736-1.563-11.023-6.364l-9.248-34.517c-1.287-4.801 1.562-9.736 6.364-11.022z" fill="#fff"/><path d="m65.535 15.913c1.539.374 2.505 1.709 2.127 3.121-.377 1.412-8.573 31.665-8.573 31.665-1.319 1.802-2.638 3.603-3.949 5.411-.229.316-.65.208-.677-.209l-.917-6.703s8.189-30.245 8.576-31.664c.388-1.419 1.874-1.995 3.413-1.621z" fill="#ff6624"/><g fill="#2396f3"><path d="m32.885 54.711 5.611-1.503c1.372-.368 2.782.447 3.15 1.819l.17.636c.368 1.372-.446 2.783-1.818 3.15l-5.611 1.504c-1.372.367-2.782-.447-3.15-1.819l-.17-.637c-.368-1.372.446-2.782 1.818-3.15z"/><path d="m37.117 26.982 10.169-2.724c.712-.191 1.445.232 1.636.944.191.713-.232 1.445-.945 1.636l-10.168 2.724c-.713.191-1.445-.231-1.636-.944-.191-.712.232-1.445.944-1.636z"/><path d="m38.785 33.205 10.168-2.725c.713-.191 1.445.232 1.636.945.191.712-.232 1.444-.944 1.635l-10.169 2.725c-.712.191-1.445-.232-1.636-.944-.19-.713.232-1.445.945-1.636z"/><path d="m52.757 42.826.098.056-.743 2.774-21.408 5.736c-.724.194-1.466-.226-1.657-.939-.191-.712.241-1.447.965-1.641l22.208-5.951z"/><path d="m28.365 42.665 22.208-5.95c.724-.194 1.465.226 1.656.939.191.712-.241 1.447-.965 1.641l-22.207 5.95c-.724.194-1.466-.226-1.657-.938-.191-.713.242-1.448.965-1.642z"/><path d="m31.132 28.601c.798-.213 1.619.26 1.833 1.059l1.597 5.962c.214.798-.26 1.619-1.058 1.833l-5.962 1.597c-.799.214-1.619-.26-1.833-1.058l-1.598-5.962c-.214-.799.26-1.619 1.058-1.833zm-.633 2.155-3.704.992c-.399.107-.636.518-.529.917l.992 3.704c.107.399.518.636.917.529l3.703-.993c.4-.107.637-.517.53-.916l-.993-3.704c-.107-.399-.517-.636-.916-.529z"/></g></svg>